<?xml version="1.0" encoding="UTF-8"?>
<svg version="1.1" xmlns="http://www.w3.org/2000/svg" width="182" height="78">
<path d="M0 0 C60.06 0 120.12 0 182 0 C182 25.74 182 51.48 182 78 C121.94 78 61.88 78 0 78 C0 52.26 0 26.52 0 0 Z " fill="#1E202E" transform="translate(0,0)"/>
<path d="M0 0 C0.90431259 -0.00145523 1.80862518 -0.00291046 2.74034119 -0.00440979 C4.64048505 -0.00275916 6.54064346 0.0087077 8.44067383 0.02954102 C11.33538002 0.05854902 14.22825696 0.05012132 17.12304688 0.03710938 C18.97787341 0.04334649 20.83269421 0.05173722 22.6875 0.0625 C23.5449733 0.05956436 24.40244659 0.05662872 25.28590393 0.05360413 C30.68467531 0.13767676 34.57904425 0.74046191 39.27734375 3.49609375 C43.97240052 8.47338789 43.86474916 13.23350312 43.80859375 19.71484375 C43.81433411 21.17899719 43.81433411 21.17899719 43.82019043 22.67272949 C43.82290449 24.73023514 43.81557884 26.78777559 43.79882812 28.84521484 C43.77741164 31.98613757 43.79864739 35.12477302 43.82421875 38.265625 C43.82157538 40.26953628 43.81645023 42.27344613 43.80859375 44.27734375 C43.81669067 45.21187378 43.8247876 46.14640381 43.83312988 47.10925293 C43.7528698 52.7179708 43.17074249 56.15458072 39.27734375 60.49609375 C34.26746068 64.91988547 30.12066559 65.07485124 23.75 64.9921875 C22.38928627 64.99437035 22.38928627 64.99437035 21.00108337 64.99659729 C19.088987 64.99494269 17.1768767 64.98343067 15.26489258 64.96264648 C12.35244601 64.93371892 9.44182514 64.94204173 6.52929688 64.95507812 C4.66535581 64.94883898 2.80142045 64.94044667 0.9375 64.9296875 C0.07375259 64.93262314 -0.78999481 64.93555878 -1.67991638 64.93858337 C-8.13991183 64.83877579 -12.85257092 63.68642203 -18.09765625 59.68359375 C-21.65717392 54.89193535 -20.89604498 48.15792791 -20.92578125 42.40625 C-20.93148132 41.5434996 -20.9371814 40.68074921 -20.9430542 39.79185486 C-20.95246466 37.97396049 -20.95902238 36.15604937 -20.96289062 34.33813477 C-20.97261329 31.57082249 -21.00368075 28.80424828 -21.03515625 26.03710938 C-21.04168587 24.26432729 -21.0469365 22.49153994 -21.05078125 20.71875 C-21.06312805 19.89875015 -21.07547485 19.07875031 -21.0881958 18.23390198 C-21.06822378 13.03685409 -20.54460916 9.0203372 -17.72265625 4.49609375 C-12.37371703 0.24274321 -6.59193781 -0.08656703 0 0 Z " fill="#719BF3" transform="translate(24.72265625,5.50390625)"/>
<path d="M0 0 C4.24977046 -0.11611395 8.49913337 -0.18722349 12.75 -0.25 C13.9565625 -0.28351562 15.163125 -0.31703125 16.40625 -0.3515625 C18.14648438 -0.37089844 18.14648438 -0.37089844 19.921875 -0.390625 C20.99018555 -0.41157227 22.05849609 -0.43251953 23.15917969 -0.45410156 C26.73462962 0.11742962 27.88346032 1.09834805 30 4 C30.4699707 6.18237305 30.4699707 6.18237305 30.42578125 8.51171875 C30.41740234 9.35154297 30.40902344 10.19136719 30.40039062 11.05664062 C30.35688477 12.35891602 30.35688477 12.35891602 30.3125 13.6875 C30.30283203 14.56728516 30.29316406 15.44707031 30.28320312 16.35351562 C30.16832442 22.83167558 30.16832442 22.83167558 29 24 C24.90288446 24.28153006 20.79313247 24.23184353 16.6875 24.25 C14.9559668 24.2809375 14.9559668 24.2809375 13.18945312 24.3125 C12.07892578 24.31765625 10.96839844 24.3228125 9.82421875 24.328125 C8.80416748 24.3374707 7.78411621 24.34681641 6.7331543 24.35644531 C3.58554188 23.94594829 2.24998663 23.20826631 0 21 C-1.24078003 17.2776599 -1.14555459 13.81203967 -1.125 9.9375 C-1.12886719 9.20466797 -1.13273438 8.47183594 -1.13671875 7.71679688 C-1.12668491 2.25336982 -1.12668491 2.25336982 0 0 Z " fill="#DEE4F6" transform="translate(15,26)"/>
<path d="M0 0 C0.33 0 0.66 0 1 0 C1.04898437 1.10859375 1.09796875 2.2171875 1.1484375 3.359375 C1.22349215 4.82294065 1.29903881 6.28648112 1.375 7.75 C1.4059375 8.47960938 1.436875 9.20921875 1.46875 9.9609375 C1.73832667 15.28910914 1.73832667 15.28910914 4 20 C6.64828179 21.3241409 8.66680112 21.12957042 11.62890625 21.1328125 C13.30436523 21.13474609 13.30436523 21.13474609 15.01367188 21.13671875 C16.18478516 21.13285156 17.35589844 21.12898438 18.5625 21.125 C20.3249707 21.13080078 20.3249707 21.13080078 22.12304688 21.13671875 C23.23873047 21.13542969 24.35441406 21.13414063 25.50390625 21.1328125 C27.04800171 21.13112061 27.04800171 21.13112061 28.62329102 21.12939453 C30.95484108 21.26769934 30.95484108 21.26769934 32 20 C32.23527773 17.65012738 32.41386417 15.29443961 32.5625 12.9375 C32.64628906 11.64714844 32.73007812 10.35679688 32.81640625 9.02734375 C32.90728516 7.52880859 32.90728516 7.52880859 33 6 C33.33 6 33.66 6 34 6 C34.14695312 7.01320313 34.14695312 7.01320313 34.296875 8.046875 C35.20288906 13.63241266 35.20288906 13.63241266 37.8125 18.5625 C40.28242677 20.3811542 40.28242677 20.3811542 45 21 C45 16.38 45 11.76 45 7 C45.33 7 45.66 7 46 7 C46.84023188 11.35332736 47.10770995 15.44442519 47.0625 19.875 C47.05347656 21.02742188 47.04445312 22.17984375 47.03515625 23.3671875 C47.02355469 24.23601563 47.01195312 25.10484375 47 26 C42.26452737 28.20825148 39.93777258 27.74274326 35 26 C34.34 26.66 33.68 27.32 33 28 C28.41011738 30.47818758 23.95281642 30.29890353 18.875 30.25 C17.65876953 30.26160156 17.65876953 30.26160156 16.41796875 30.2734375 C15.63808594 30.27085938 14.85820312 30.26828125 14.0546875 30.265625 C13.34812012 30.26336914 12.64155273 30.26111328 11.91357422 30.25878906 C10 30 10 30 7 28 C7 27.34 7 26.68 7 26 C6.21625 25.896875 5.4325 25.79375 4.625 25.6875 C2 25 2 25 0 22 C-0.22705078 19.63989258 -0.22705078 19.63989258 -0.1953125 16.89453125 C-0.18886719 15.91162109 -0.18242187 14.92871094 -0.17578125 13.91601562 C-0.15902344 12.89185547 -0.14226563 11.86769531 -0.125 10.8125 C-0.11597656 9.77673828 -0.10695313 8.74097656 -0.09765625 7.67382812 C-0.0740786 5.11565315 -0.0411703 2.55794252 0 0 Z " fill="#3655A4" transform="translate(13,28)"/>
<path d="M0 0 C1.65 0 3.3 0 5 0 C5 8.58 5 17.16 5 26 C2.66666667 26 0.33333333 26 -2 26 C-3.11375 26.103125 -4.2275 26.20625 -5.375 26.3125 C-9 26 -9 26 -11.4375 24.0625 C-13.55057951 19.92086416 -13.80011076 16.56145616 -13 12 C-11.4375 8.9375 -11.4375 8.9375 -9 7 C-5.3125 6.625 -5.3125 6.625 -2 7 C-1.67 7.33 -1.34 7.66 -1 8 C-0.67 5.36 -0.34 2.72 0 0 Z " fill="#F4F4F4" transform="translate(140,24)"/>
<path d="M0 0 C1.98 0 3.96 0 6 0 C7.98 5.94 9.96 11.88 12 18 C13.98 12.06 15.96 6.12 18 0 C19.98 0 21.96 0 24 0 C21.56696874 8.87842985 18.29163506 17.41405225 15 26 C13.02 26 11.04 26 9 26 C7.4946891 22.04366575 5.99665407 18.08461633 4.5 14.125 C4.07074219 12.99707031 3.64148438 11.86914062 3.19921875 10.70703125 C2.79316406 9.63066406 2.38710937 8.55429687 1.96875 7.4453125 C1.59169922 6.45031738 1.21464844 5.45532227 0.82617188 4.43017578 C0 2 0 2 0 0 Z " fill="#F2F2F3" transform="translate(92,24)"/>
<path d="M0 0 C1.65 0 3.3 0 5 0 C6.32 3.63 7.64 7.26 9 11 C10.32 7.37 11.64 3.74 13 0 C14.98 0 16.96 0 19 0 C17.1891723 5.73428771 15.14227006 11.3451577 12.9375 16.9375 C12.6801709 17.60015869 12.4228418 18.26281738 12.15771484 18.94555664 C11.03062479 21.77202457 10.1748012 23.8251988 8 26 C4.375 26.125 4.375 26.125 1 26 C1 25.01 1 24.02 1 23 C2.32 22.34 3.64 21.68 5 21 C4.56685866 15.15259196 3.20631992 10.56379283 0.83984375 5.19921875 C0 3 0 3 0 0 Z " fill="#EFEFF0" transform="translate(158,31)"/>
<path d="M0 0 C-0.33 7.26 -0.66 14.52 -1 22 C-7.17271639 20.76545672 -7.17271639 20.76545672 -10 17 C-10.92929499 12.9065411 -10.8315393 9.10846061 -10 5 C-7.30929185 1.05696758 -4.75779057 -1.58593019 0 0 Z " fill="#DEE4F6" transform="translate(58,27)"/>
<path d="M0 0 C0.33 0 0.66 0 1 0 C1.84023188 4.35332736 2.10770995 8.44442519 2.0625 12.875 C2.05347656 14.02742188 2.04445312 15.17984375 2.03515625 16.3671875 C2.02355469 17.23601563 2.01195312 18.10484375 2 19 C-2.73547263 21.20825148 -5.06222742 20.74274326 -10 19 C-10.66 19.66 -11.32 20.32 -12 21 C-16.58988262 23.47818758 -21.04718358 23.29890353 -26.125 23.25 C-26.93582031 23.25773437 -27.74664062 23.26546875 -28.58203125 23.2734375 C-29.36191406 23.27085938 -30.14179688 23.26828125 -30.9453125 23.265625 C-31.65187988 23.26336914 -32.35844727 23.26111328 -33.08642578 23.25878906 C-35 23 -35 23 -38 21 C-38 20.34 -38 19.68 -38 19 C-37.2886792 18.99589111 -36.5773584 18.99178223 -35.84448242 18.98754883 C-32.62464003 18.95467451 -29.40670559 18.8840379 -26.1875 18.8125 C-24.50817383 18.80379883 -24.50817383 18.80379883 -22.79492188 18.79492188 C-21.72177734 18.76591797 -20.64863281 18.73691406 -19.54296875 18.70703125 C-18.55321045 18.6913208 -17.56345215 18.67561035 -16.54370117 18.65942383 C-13.75007555 18.22297736 -13.75007555 18.22297736 -12.15356445 15.45581055 C-11.77288818 14.64539307 -11.39221191 13.83497559 -11 13 C-10.195625 13.4640625 -10.195625 13.4640625 -9.375 13.9375 C-6.50232915 15.3427092 -6.50232915 15.3427092 -1 16 C-0.67 10.72 -0.34 5.44 0 0 Z " fill="#4674D6" transform="translate(58,35)"/>
<path d="M0 0 C1.65 0 3.3 0 5 0 C5 8.58 5 17.16 5 26 C3.35 26 1.7 26 0 26 C0 17.42 0 8.84 0 0 Z " fill="#F2F2F3" transform="translate(150,24)"/>
<path d="M0 0 C1.65 0 3.3 0 5 0 C5 6.27 5 12.54 5 19 C3.35 19 1.7 19 0 19 C0 12.73 0 6.46 0 0 Z " fill="#F1F1F1" transform="translate(118,31)"/>
<path d="M0 0 C1.10601563 -0.01611328 2.21203125 -0.03222656 3.3515625 -0.04882812 C4.41117188 -0.04947266 5.47078125 -0.05011719 6.5625 -0.05078125 C7.53316406 -0.05376221 8.50382812 -0.05674316 9.50390625 -0.05981445 C12.36883408 0.36751486 13.24045899 1.07197335 15 3.3125 C12.25268757 4.68615621 10.18332936 4.3253639 7.1171875 4.19140625 C5.95058594 4.14306641 4.78398438 4.09472656 3.58203125 4.04492188 C1.74705078 3.96081055 1.74705078 3.96081055 -0.125 3.875 C-1.35605469 3.82279297 -2.58710938 3.77058594 -3.85546875 3.71679688 C-6.90388588 3.5868256 -9.9519995 3.45184981 -13 3.3125 C-13 3.9725 -13 4.6325 -13 5.3125 C-13.66 5.3125 -14.32 5.3125 -15 5.3125 C-15 4.3225 -15 3.3325 -15 2.3125 C-10.32754625 -0.80246916 -5.49414246 -0.01600857 0 0 Z " fill="#819DDF" transform="translate(28,22.6875)"/>
<path d="M0 0 C4.55555556 0.55555556 4.55555556 0.55555556 6 2 C6.1875 5.4375 6.1875 5.4375 6 9 C5.34 9.66 4.68 10.32 4 11 C-0.55555556 10.44444444 -0.55555556 10.44444444 -2 9 C-2.1875 5.5625 -2.1875 5.5625 -2 2 C-1.34 1.34 -0.68 0.68 0 0 Z " fill="#232532" transform="translate(134,35)"/>
<path d="M0 0 C4.0982389 7.26270185 4.54549329 15.96343487 3 24 C2.67 24 2.34 24 2 24 C1.67 20.7 1.34 17.4 1 14 C0.67 16.64 0.34 19.28 0 22 C-0.33 22 -0.66 22 -1 22 C-1.02716824 19.45826023 -1.04691969 16.91681585 -1.0625 14.375 C-1.07087891 13.66214844 -1.07925781 12.94929688 -1.08789062 12.21484375 C-1.10710296 8.02655562 -0.8267327 4.1271538 0 0 Z " fill="#7493DC" transform="translate(58,27)"/>
<path d="M0 0 C2.31 0.33 4.62 0.66 7 1 C6.01 2.485 6.01 2.485 5 4 C4.54398739 6.50896686 4.54398739 6.50896686 4.375 9.1875 C4.30023438 10.08855469 4.22546875 10.98960938 4.1484375 11.91796875 C4.09945312 12.60503906 4.05046875 13.29210938 4 14 C3.67 14 3.34 14 3 14 C2.67 15.98 2.34 17.96 2 20 C1.67 20 1.34 20 1 20 C0.67 13.4 0.34 6.8 0 0 Z " fill="#788AC1" transform="translate(44,28)"/>
<path d="M0 0 C0.33 0 0.66 0 1 0 C1.09796875 0.67546875 1.1959375 1.3509375 1.296875 2.046875 C2.20288906 7.63241266 2.20288906 7.63241266 4.8125 12.5625 C7.24122562 14.15851969 9.12671929 14.68074659 12 15 C11.67 15.99 11.34 16.98 11 18 C8.125 17.75 8.125 17.75 5 17 C3.8125 15 3.8125 15 3 13 C2.01 12.67 1.02 12.34 0 12 C0 8.04 0 4.08 0 0 Z " fill="#2F468D" transform="translate(46,34)"/>
<path d="M0 0 C1.65 0 3.3 0 5 0 C5 1.65 5 3.3 5 5 C3.35 5 1.7 5 0 5 C0 3.35 0 1.7 0 0 Z " fill="#E2E2E4" transform="translate(118,24)"/>
<path d="M0 0 C0.33 0 0.66 0 1 0 C1.13277344 0.69867188 1.26554687 1.39734375 1.40234375 2.1171875 C1.57894531 3.02726562 1.75554688 3.93734375 1.9375 4.875 C2.11152344 5.77992187 2.28554688 6.68484375 2.46484375 7.6171875 C2.89963701 9.99956317 2.89963701 9.99956317 4 12 C2.68 12 1.36 12 0 12 C0 8.04 0 4.08 0 0 Z " fill="#3B549D" transform="translate(46,34)"/>
</svg>
