<svg version="1.1" id="Layer_1" xmlns="http://www.w3.org/2000/svg" xmlns:xlink="http://www.w3.org/1999/xlink" x="0px" y="0px"
	 width="100%" viewBox="0 0 182 78" enable-background="new 0 0 182 78" xml:space="preserve">
<path fill="#1E202F" opacity="1.000000" stroke="none" 
	d="
M142.000000,79.000000 
	C94.666687,79.000000 47.833366,79.000000 1.000038,79.000000 
	C1.000025,53.000027 1.000025,27.000051 1.000013,1.000059 
	C61.666622,1.000039 122.333244,1.000039 182.999908,1.000020 
	C182.999939,26.999945 182.999939,52.999889 182.999969,78.999916 
	C169.500000,79.000000 156.000000,79.000000 142.000000,79.000000 
M4.882169,47.859833 
	C4.938568,49.904926 4.994967,51.950016 4.941943,54.778568 
	C5.180900,56.549313 5.419856,58.320053 5.707566,60.831062 
	C7.068348,63.031719 8.429131,65.232376 10.227205,67.966789 
	C13.319090,69.012947 16.386063,70.865097 19.507299,70.961563 
	C31.156290,71.321617 42.836979,71.423271 54.474697,70.913025 
	C57.962807,70.760094 61.349636,68.297012 65.398964,66.528114 
	C66.498505,64.065689 67.598045,61.603260 68.931915,58.364311 
	C68.939537,54.907883 68.947166,51.451454 69.112312,47.117443 
	C69.058807,44.743114 69.005310,42.368786 69.111458,39.130390 
	C69.057396,37.085651 69.003334,35.040916 69.115845,32.173576 
	C69.059212,30.781212 69.002579,29.388845 69.115860,27.171926 
	C69.037430,25.779917 68.958992,24.387909 68.975739,22.247509 
	C68.760643,20.795418 68.545547,19.343328 68.290733,17.183701 
	C67.353081,15.391163 66.415428,13.598625 65.118843,11.185703 
	C61.850662,9.789928 58.626354,7.326742 55.306412,7.190284 
	C43.384739,6.700275 31.411974,6.621418 19.500025,7.217099 
	C15.769467,7.403654 12.169814,10.207942 8.001723,12.246746 
	C7.223345,14.128095 6.444967,16.009443 5.237922,18.505224 
	C5.214078,20.001661 5.190235,21.498096 4.971875,23.853462 
	C4.997800,25.899389 5.023725,27.945316 4.865787,30.811750 
	C4.923821,32.206970 4.981855,33.602192 4.872772,35.860481 
	C4.932189,37.905281 4.991608,39.950081 4.878643,42.816914 
	C4.935451,44.210205 4.992259,45.603500 4.882169,47.859833 
M100.417633,46.197826 
	C101.013496,47.728123 101.609367,49.258419 102.231850,50.857063 
	C104.132614,50.857063 105.926643,50.857063 107.838997,50.857063 
	C110.864441,42.364834 113.850006,33.984528 116.866043,25.518696 
	C111.508629,24.957314 111.501495,24.954924 110.098793,29.141947 
	C108.579636,33.676567 107.075584,38.216248 105.143394,44.019920 
	C103.121254,38.168259 101.286720,33.734478 100.090370,29.134708 
	C99.036865,25.084116 96.876297,24.368818 93.143036,25.622555 
	C95.506966,32.341900 97.813820,38.898998 100.417633,46.197826 
M127.896858,40.675827 
	C128.148682,47.449383 130.259598,50.963425 134.693466,51.091755 
	C138.370361,51.198177 142.066452,50.641479 145.656387,50.385521 
	C145.656387,42.061043 145.656387,33.657116 145.656387,25.005713 
	C143.892670,25.186392 142.492584,25.329821 140.826553,25.500492 
	C140.826553,28.450834 140.826553,31.016001 140.826553,33.701160 
	C133.387772,30.379286 129.577499,32.283222 127.896858,40.675827 
M168.573212,44.007862 
	C167.357697,41.191883 165.890305,38.453449 164.993118,35.539463 
	C163.969421,32.214577 162.121735,31.484257 158.680710,32.805271 
	C160.695496,38.133587 162.956650,43.292381 164.485443,48.659771 
	C164.940552,50.257610 163.522446,52.533325 162.611694,54.319504 
	C162.099136,55.324757 160.870285,55.964794 159.964127,56.769360 
	C161.293915,57.334969 162.828094,58.616486 163.908325,58.308052 
	C165.800858,57.767677 168.312302,56.642056 168.992218,55.078087 
	C172.145981,47.823723 174.759430,40.334461 177.576279,32.903088 
	C173.855606,31.270996 172.180267,32.490578 171.354568,35.716042 
	C170.697800,38.281601 169.745331,40.771461 168.573212,44.007862 
M152.482819,25.130959 
	C151.946533,26.127918 150.961014,27.118088 150.945831,28.122925 
	C150.835175,35.445488 150.913696,42.771042 150.965881,50.095413 
	C150.967819,50.367367 151.314133,50.636868 151.640869,51.112724 
	C152.928268,50.962524 154.326752,50.799366 155.882568,50.617851 
	C155.882568,42.944229 155.985260,35.630440 155.771378,28.325922 
	C155.739456,27.235352 154.220596,26.188318 152.482819,25.130959 
M121.391907,51.025059 
	C122.221886,50.324471 123.743851,49.649975 123.771408,48.919136 
	C123.975357,43.509930 123.881859,38.089508 123.881859,32.500298 
	C121.979965,32.500298 120.610481,32.500298 118.874840,32.500298 
	C118.874840,38.217960 118.821701,43.655991 118.944450,49.090050 
	C118.959221,49.743809 119.927101,50.376041 121.391907,51.025059 
M122.235596,25.090960 
	C121.106964,25.655809 119.750435,26.006874 118.940300,26.870491 
	C118.496811,27.343271 118.976524,28.682087 119.059334,29.920576 
	C120.802139,29.830696 122.202980,29.758451 124.208237,29.655037 
	C123.757492,27.891937 123.418884,26.567455 122.235596,25.090960 
z"/>
<path fill="#447EF0" opacity="1.000000" stroke="none" 
	d="
M68.697586,59.140831 
	C67.598045,61.603260 66.498505,64.065689 64.722595,66.550667 
	C63.242672,66.389046 62.439491,66.046021 61.635513,66.044159 
	C45.697182,66.007141 29.758560,65.975273 13.820704,66.066093 
	C12.474554,66.073761 11.133392,66.956711 9.789913,67.433029 
	C8.429131,65.232376 7.068348,63.031719 6.165504,60.439240 
	C10.416093,59.697681 14.208744,59.347950 18.469894,58.998817 
	C33.955509,58.998100 48.972622,58.996784 64.459106,58.997780 
	C66.184853,59.047009 67.441216,59.093918 68.697586,59.140831 
z"/>
<path fill="#90AFF7" opacity="1.000000" stroke="none" 
	d="
M68.330460,17.891239 
	C68.545547,19.343328 68.760643,20.795418 68.498711,22.622986 
	C64.681107,23.665152 61.340538,24.331837 57.666481,24.998884 
	C56.888680,24.998991 56.444355,24.998737 55.725060,24.744225 
	C50.539295,21.921122 45.757988,23.089176 40.546230,24.991161 
	C32.060452,24.995157 24.030529,24.998560 15.725937,24.747255 
	C12.022974,23.993210 8.594683,23.493872 5.166391,22.994534 
	C5.190235,21.498096 5.214078,20.001661 5.942756,18.225151 
	C27.208544,17.927132 47.769497,17.909185 68.330460,17.891239 
z"/>
<path fill="#A3BBF7" opacity="1.000000" stroke="none" 
	d="
M8.510242,11.814000 
	C12.169814,10.207942 15.769467,7.403654 19.500025,7.217099 
	C31.411974,6.621418 43.384739,6.700275 55.306412,7.190284 
	C58.626354,7.326742 61.850662,9.789928 64.880539,11.670021 
	C63.186367,12.434960 61.731426,12.953934 60.274509,12.959529 
	C44.786930,13.019013 29.298817,13.034926 13.811531,12.945324 
	C12.042312,12.935087 10.277238,12.208458 8.510242,11.814000 
z"/>
<path fill="#9AB5F7" opacity="1.000000" stroke="none" 
	d="
M8.255982,12.030373 
	C10.277238,12.208458 12.042312,12.935087 13.811531,12.945324 
	C29.298817,13.034926 44.786930,13.019013 60.274509,12.959529 
	C61.731426,12.953934 63.186367,12.434960 65.059998,11.980213 
	C66.415428,13.598625 67.353081,15.391163 68.310593,17.537470 
	C47.769497,17.909185 27.208544,17.927132 6.157088,17.917934 
	C6.444967,16.009443 7.223345,14.128095 8.255982,12.030373 
z"/>
<path fill="#F2F3F3" opacity="1.000000" stroke="none" 
	d="
M100.269150,45.826958 
	C97.813820,38.898998 95.506966,32.341900 93.143036,25.622555 
	C96.876297,24.368818 99.036865,25.084116 100.090370,29.134708 
	C101.286720,33.734478 103.121254,38.168259 105.143394,44.019920 
	C107.075584,38.216248 108.579636,33.676567 110.098793,29.141947 
	C111.501495,24.954924 111.508629,24.957314 116.866043,25.518696 
	C113.850006,33.984528 110.864441,42.364834 107.838997,50.857063 
	C105.926643,50.857063 104.132614,50.857063 102.231850,50.857063 
	C101.609367,49.258419 101.013496,47.728123 100.269150,45.826958 
z"/>
<path fill="#F6F6F6" opacity="1.000000" stroke="none" 
	d="
M127.928322,40.256348 
	C129.577499,32.283222 133.387772,30.379286 140.826553,33.701160 
	C140.826553,31.016001 140.826553,28.450834 140.826553,25.500492 
	C142.492584,25.329821 143.892670,25.186392 145.656387,25.005713 
	C145.656387,33.657116 145.656387,42.061043 145.656387,50.385521 
	C142.066452,50.641479 138.370361,51.198177 134.693466,51.091755 
	C130.259598,50.963425 128.148682,47.449383 127.928322,40.256348 
M140.046021,45.515312 
	C140.161896,43.120266 140.895859,40.504551 140.150558,38.416958 
	C139.735687,37.254871 136.856964,36.972408 135.088638,36.293526 
	C134.517197,39.174191 133.080307,42.227886 133.612137,44.887966 
	C134.169510,47.675705 137.002899,48.182419 140.046021,45.515312 
z"/>
<path fill="#3B79EF" opacity="1.000000" stroke="none" 
	d="
M10.008559,67.699905 
	C11.133392,66.956711 12.474554,66.073761 13.820704,66.066093 
	C29.758560,65.975273 45.697182,66.007141 61.635513,66.044159 
	C62.439491,66.046021 63.242672,66.389046 64.414551,66.732758 
	C61.349636,68.297012 57.962807,70.760094 54.474697,70.913025 
	C42.836979,71.423271 31.156290,71.321617 19.507299,70.961563 
	C16.386063,70.865097 13.319090,69.012947 10.008559,67.699905 
z"/>
<path fill="#F0F0F1" opacity="1.000000" stroke="none" 
	d="
M168.748688,43.651398 
	C169.745331,40.771461 170.697800,38.281601 171.354568,35.716042 
	C172.180267,32.490578 173.855606,31.270996 177.576279,32.903088 
	C174.759430,40.334461 172.145981,47.823723 168.992218,55.078087 
	C168.312302,56.642056 165.800858,57.767677 163.908325,58.308052 
	C162.828094,58.616486 161.293915,57.334969 159.964127,56.769360 
	C160.870285,55.964794 162.099136,55.324757 162.611694,54.319504 
	C163.522446,52.533325 164.940552,50.257610 164.485443,48.659771 
	C162.956650,43.292381 160.695496,38.133587 158.680710,32.805271 
	C162.121735,31.484257 163.969421,32.214577 164.993118,35.539463 
	C165.890305,38.453449 167.357697,41.191883 168.748688,43.651398 
z"/>
<path fill="#7CA0EF" opacity="1.000000" stroke="none" 
	d="
M16.000607,25.001963 
	C24.030529,24.998560 32.060452,24.995157 40.814037,25.235733 
	C46.279480,27.850672 51.084003,28.475882 56.000229,26.226467 
	C56.000462,26.453434 56.001110,26.907366 55.756271,27.127293 
	C53.499828,29.236200 51.488224,31.125181 49.186565,32.976982 
	C48.703743,32.910759 48.510971,32.881710 48.009087,32.833588 
	C47.493656,32.822483 47.287342,32.830444 46.946129,32.643883 
	C46.583389,32.213207 46.310593,32.054039 45.902527,31.992287 
	C45.812214,32.012718 45.627068,32.016998 45.542587,31.685974 
	C43.134777,29.896107 40.941799,27.529978 38.460098,27.173424 
	C33.763447,26.498640 28.896481,26.852440 24.109253,27.026155 
	C21.410580,27.124083 18.729805,27.715178 15.749256,28.269299 
	C15.406572,29.949980 15.355598,31.445482 15.258078,33.197914 
	C15.140493,33.613766 15.069456,33.772686 14.709734,33.939968 
	C14.228591,33.953838 14.036133,33.959339 13.442489,33.975529 
	C10.374165,34.323280 7.707027,34.660347 5.039889,34.997414 
	C4.981855,33.602192 4.923821,32.206970 5.343806,30.402000 
	C9.214753,28.328823 12.607679,26.665392 16.000607,25.001963 
z"/>
<path fill="#F3F3F4" opacity="1.000000" stroke="none" 
	d="
M152.936218,25.126053 
	C154.220596,26.188318 155.739456,27.235352 155.771378,28.325922 
	C155.985260,35.630440 155.882568,42.944229 155.882568,50.617851 
	C154.326752,50.799366 152.928268,50.962524 151.640869,51.112724 
	C151.314133,50.636868 150.967819,50.367367 150.965881,50.095413 
	C150.913696,42.771042 150.835175,35.445488 150.945831,28.122925 
	C150.961014,27.118088 151.946533,26.127918 152.936218,25.126053 
z"/>
<path fill="#F1F1F2" opacity="1.000000" stroke="none" 
	d="
M120.922577,51.021656 
	C119.927101,50.376041 118.959221,49.743809 118.944450,49.090050 
	C118.821701,43.655991 118.874840,38.217960 118.874840,32.500298 
	C120.610481,32.500298 121.979965,32.500298 123.881859,32.500298 
	C123.881859,38.089508 123.975357,43.509930 123.771408,48.919136 
	C123.743851,49.649975 122.221886,50.324471 120.922577,51.021656 
z"/>
<path fill="#4F85F0" opacity="1.000000" stroke="none" 
	d="
M18.001396,58.998219 
	C14.208744,59.347950 10.416093,59.697681 6.141127,60.069107 
	C5.419856,58.320053 5.180900,56.549313 5.390215,54.388062 
	C8.856319,54.149181 11.399913,53.569405 12.238392,50.084881 
	C12.981872,49.784706 13.491633,49.399078 14.234394,49.271149 
	C14.659244,50.664070 14.851095,51.799297 15.077388,53.279263 
	C16.075018,55.415405 17.038208,57.206814 18.001396,58.998219 
z"/>
<path fill="#578AF1" opacity="1.000000" stroke="none" 
	d="
M68.814751,58.752571 
	C67.441216,59.093918 66.184853,59.047009 64.407967,58.655487 
	C62.899403,56.508949 61.911358,54.707024 60.928246,52.477654 
	C60.947685,50.038387 60.962193,48.026558 61.344074,46.071678 
	C64.125900,46.750763 66.540344,47.372894 68.954788,47.995026 
	C68.947166,51.451454 68.939537,54.907883 68.814751,58.752571 
z"/>
<path fill="#6894F0" opacity="1.000000" stroke="none" 
	d="
M69.033554,47.556236 
	C66.540344,47.372894 64.125900,46.750763 61.268505,45.665443 
	C60.565804,41.470177 60.306046,37.738091 60.375732,34.091595 
	C62.999435,36.760746 64.264320,40.803551 68.951805,39.994457 
	C69.005310,42.368786 69.058807,44.743114 69.033554,47.556236 
z"/>
<path fill="#88AAF6" opacity="1.000000" stroke="none" 
	d="
M15.725937,24.747255 
	C12.607679,26.665392 9.214753,28.328823 5.435738,29.991749 
	C5.023725,27.945316 4.997800,25.899389 5.069133,23.423998 
	C8.594683,23.493872 12.022974,23.993210 15.725937,24.747255 
z"/>
<path fill="#709AF3" opacity="1.000000" stroke="none" 
	d="
M4.956330,35.428947 
	C7.707027,34.660347 10.374165,34.323280 13.483853,34.388378 
	C13.903428,36.167347 13.880451,37.544147 13.627495,38.936543 
	C13.397516,38.952133 12.937494,38.982357 12.589563,39.046501 
	C9.844763,40.072056 7.447894,41.033470 5.051025,41.994881 
	C4.991608,39.950081 4.932189,37.905281 4.956330,35.428947 
z"/>
<path fill="#759DF4" opacity="1.000000" stroke="none" 
	d="
M69.031631,39.562424 
	C64.264320,40.803551 62.999435,36.760746 60.349625,33.829662 
	C59.996254,33.306774 59.998444,33.131405 59.991859,32.587433 
	C60.038109,31.483810 60.093124,30.748795 60.493973,30.077532 
	C63.542957,31.092915 66.246117,32.044548 68.949272,32.996178 
	C69.003334,35.040916 69.057396,37.085651 69.031631,39.562424 
z"/>
<path fill="#88AAF6" opacity="1.000000" stroke="none" 
	d="
M57.999966,24.998524 
	C61.340538,24.331837 64.681107,23.665152 68.451126,22.997181 
	C68.958992,24.387909 69.037430,25.779917 68.573456,27.585312 
	C64.941696,28.033480 61.852345,28.068262 58.578022,28.069399 
	C58.393051,28.035751 58.024036,27.955261 57.994789,27.764725 
	C57.965538,27.574190 57.929604,27.190334 57.957657,26.825569 
	C57.990463,25.973377 57.995213,25.485950 57.999966,24.998524 
z"/>
<path fill="#5C8EF2" opacity="1.000000" stroke="none" 
	d="
M12.004675,49.999428 
	C11.399913,53.569405 8.856319,54.149181 5.444927,53.996334 
	C4.994967,51.950016 4.938568,49.904926 5.359404,47.426594 
	C7.889453,46.660637 9.942269,46.327923 11.997950,46.395767 
	C12.002101,47.864025 12.003388,48.931728 12.004675,49.999428 
z"/>
<path fill="#6794F1" opacity="1.000000" stroke="none" 
	d="
M11.995085,45.995209 
	C9.942269,46.327923 7.889453,46.660637 5.442852,46.995071 
	C4.992259,45.603500 4.935451,44.210205 4.964834,42.405899 
	C7.447894,41.033470 9.844763,40.072056 12.546259,39.435081 
	C12.565619,41.838081 12.280352,43.916645 11.995085,45.995209 
z"/>
<path fill="#80A4F4" opacity="1.000000" stroke="none" 
	d="
M58.762993,28.103046 
	C61.852345,28.068262 64.941696,28.033480 68.488495,27.997589 
	C69.002579,29.388845 69.059212,30.781212 69.032562,32.584877 
	C66.246117,32.044548 63.542957,31.092915 60.350410,29.818560 
	C59.495010,29.031572 59.129002,28.567310 58.762993,28.103046 
z"/>
<path fill="#E2E3E4" opacity="1.000000" stroke="none" 
	d="
M122.657936,25.166965 
	C123.418884,26.567455 123.757492,27.891937 124.208237,29.655037 
	C122.202980,29.758451 120.802139,29.830696 119.059334,29.920576 
	C118.976524,28.682087 118.496811,27.343271 118.940300,26.870491 
	C119.750435,26.006874 121.106964,25.655809 122.657936,25.166965 
z"/>
<path fill="#4A7FE8" opacity="1.000000" stroke="none" 
	d="
M60.923313,52.905094 
	C61.911358,54.707024 62.899403,56.508949 63.938591,58.653172 
	C48.972622,58.996784 33.955509,58.998100 18.469894,58.998817 
	C17.038208,57.206814 16.075018,55.415405 15.428619,53.350922 
	C22.393553,58.157101 30.186241,57.175716 37.695225,56.823280 
	C40.733040,56.680702 43.680149,54.827229 46.692585,53.824570 
	C48.109386,53.353001 50.246490,52.251236 50.919529,52.808662 
	C54.385246,55.679054 57.578243,54.867527 60.923313,52.905094 
z"/>
<path fill="#88AAF6" opacity="1.000000" stroke="none" 
	d="
M56.000000,25.999502 
	C51.084003,28.475882 46.279480,27.850672 41.269894,25.235140 
	C45.757988,23.089176 50.539295,21.921122 55.725128,24.994522 
	C56.000118,25.665884 56.000057,25.832693 56.000000,25.999502 
z"/>
<path fill="#80A4F4" opacity="1.000000" stroke="none" 
	d="
M56.000229,26.226467 
	C56.000057,25.832693 56.000118,25.665884 56.000107,25.248779 
	C56.444355,24.998737 56.888680,24.998991 57.666481,24.998886 
	C57.995213,25.485950 57.990463,25.973377 57.640869,26.751097 
	C56.864388,26.996714 56.432751,26.952040 56.001110,26.907366 
	C56.001110,26.907366 56.000462,26.453434 56.000229,26.226467 
z"/>
<path fill="#252634" opacity="1.000000" stroke="none" 
	d="
M139.798782,45.852715 
	C137.002899,48.182419 134.169510,47.675705 133.612137,44.887966 
	C133.080307,42.227886 134.517197,39.174191 135.088638,36.293526 
	C136.856964,36.972408 139.735687,37.254871 140.150558,38.416958 
	C140.895859,40.504551 140.161896,43.120266 139.798782,45.852715 
z"/>
<path fill="#4067C2" opacity="1.000000" stroke="none" 
	d="
M60.928246,52.477654 
	C57.578243,54.867527 54.385246,55.679054 50.919529,52.808662 
	C50.246490,52.251236 48.109386,53.353001 46.692585,53.824570 
	C43.680149,54.827229 40.733040,56.680702 37.695225,56.823280 
	C30.186241,57.175716 22.393553,58.157101 15.394177,53.006184 
	C14.851095,51.799297 14.659244,50.664070 14.236367,48.814430 
	C13.956053,45.040325 13.906764,41.980640 13.857474,38.920952 
	C13.880451,37.544147 13.903428,36.167347 13.885040,34.377693 
	C14.036133,33.959339 14.228591,33.953838 14.773134,34.283955 
	C15.227875,35.070702 15.330532,35.521828 15.337490,36.367882 
	C15.351534,37.832565 15.461277,38.902321 15.444471,40.359142 
	C15.567250,43.100029 15.816579,45.453850 16.075943,48.155457 
	C16.758657,48.977867 17.431334,49.452499 18.062927,49.941044 
	C18.021847,49.954960 18.066502,49.880589 18.056820,50.271370 
	C19.434355,51.421406 20.799755,52.786407 22.212477,52.837276 
	C29.112181,53.085732 36.025932,53.052620 42.930454,52.911106 
	C43.724781,52.894829 44.492554,51.582878 45.549534,50.719238 
	C45.937172,48.674873 46.047920,46.782944 46.093956,44.649765 
	C46.029243,44.408516 45.785385,43.972534 45.871326,43.565971 
	C46.086555,41.789742 46.215847,40.420067 46.538956,38.717102 
	C46.848858,36.535339 46.964943,34.686871 47.081028,32.838402 
	C47.287342,32.830444 47.493656,32.822483 47.941467,33.268677 
	C48.240032,34.298813 48.297108,34.874790 48.384811,35.780136 
	C48.581623,37.417088 48.747807,38.724670 48.815712,40.411808 
	C48.835239,41.821724 48.953045,42.852085 48.950157,44.094402 
	C49.229740,44.882698 49.630013,45.459042 50.186989,46.335831 
	C51.299629,47.500782 52.162788,48.512535 53.236988,49.189323 
	C54.362968,49.898727 55.691448,50.286709 56.931427,50.815174 
	C57.241413,49.532780 57.551403,48.250385 57.911606,46.535797 
	C57.980251,44.072823 57.998684,42.042034 58.007957,40.007629 
	C57.998806,40.004013 58.011524,40.020329 58.196281,39.920177 
	C58.663132,39.615013 58.708115,39.367043 58.617134,38.674629 
	C58.689262,37.177082 58.660236,36.081028 58.736179,34.664238 
	C58.896767,33.896961 58.952381,33.450420 59.256832,33.005951 
	C59.505669,33.008022 60.000629,32.956036 60.000629,32.956036 
	C59.998444,33.131405 59.996254,33.306774 60.020172,33.744076 
	C60.306046,37.738091 60.565804,41.470177 60.901131,45.608494 
	C60.962193,48.026558 60.947685,50.038387 60.928246,52.477654 
z"/>
<path fill="#F7F9FD" opacity="1.000000" stroke="none" 
	d="
M16.040966,28.084116 
	C18.729805,27.715178 21.410580,27.124083 24.109253,27.026155 
	C28.896481,26.852440 33.763447,26.498640 38.460098,27.173424 
	C40.941799,27.529978 43.134777,29.896107 45.100307,31.680149 
	C35.193340,31.995502 25.644173,31.985659 16.069923,31.586941 
	C16.043549,30.160086 16.042257,29.122101 16.040966,28.084116 
z"/>
<path fill="#EFF2FB" opacity="1.000000" stroke="none" 
	d="
M16.095007,31.975813 
	C25.644173,31.985659 35.193340,31.995502 45.184784,32.011173 
	C45.627068,32.016998 45.812214,32.012718 45.889305,32.371536 
	C45.921379,33.482468 45.876354,34.234581 45.423584,35.010532 
	C35.154957,35.347233 25.294071,35.660095 15.433188,35.972954 
	C15.330532,35.521828 15.227875,35.070702 15.061818,34.275589 
	C15.069456,33.772686 15.140493,33.613766 15.421301,33.067642 
	C15.817363,32.466408 15.972009,32.231533 16.095007,31.975813 
z"/>
<path fill="#F0F2FA" opacity="1.000000" stroke="none" 
	d="
M59.007996,33.003880 
	C58.952381,33.450420 58.896767,33.896961 58.370361,34.668644 
	C54.971268,35.004009 52.042961,35.014229 49.120533,34.682343 
	C49.243149,33.898209 49.359882,33.456188 49.476616,33.014164 
	C51.488224,31.125181 53.499828,29.236200 55.756271,27.127293 
	C56.432751,26.952040 56.864388,26.996714 57.612816,27.115862 
	C57.929604,27.190334 57.965538,27.574190 57.989220,28.152752 
	C58.344597,30.155504 58.676296,31.579691 59.007996,33.003880 
z"/>
<path fill="#D7DFF5" opacity="1.000000" stroke="none" 
	d="
M16.069923,31.586941 
	C15.972009,32.231533 15.817363,32.466408 15.467848,32.810707 
	C15.355598,31.445482 15.406572,29.949980 15.749256,28.269299 
	C16.042257,29.122101 16.043549,30.160086 16.069923,31.586941 
z"/>
<path fill="#7C89B8" opacity="1.000000" stroke="none" 
	d="
M45.831329,34.986694 
	C45.876354,34.234581 45.921379,33.482468 45.979622,32.351105 
	C46.310593,32.054039 46.583389,32.213207 46.946129,32.643883 
	C46.964943,34.686871 46.848858,36.535339 46.363480,38.727348 
	C45.994190,39.070885 45.642792,39.076336 45.732719,38.673351 
	C45.825539,37.175808 45.828434,36.081253 45.831329,34.986694 
z"/>
<path fill="#7C89B8" opacity="1.000000" stroke="none" 
	d="
M49.186565,32.976982 
	C49.359882,33.456188 49.243149,33.898209 48.935169,34.797432 
	C48.743923,35.254627 48.354183,35.450768 48.354183,35.450768 
	C48.297108,34.874790 48.240032,34.298813 48.250580,33.287746 
	C48.510971,32.881710 48.703743,32.910759 49.186565,32.976982 
z"/>
<path fill="#5B85E1" opacity="1.000000" stroke="none" 
	d="
M13.627495,38.936543 
	C13.906764,41.980640 13.956053,45.040325 14.003368,48.556732 
	C13.491633,49.399078 12.981872,49.784706 12.238392,50.084881 
	C12.003388,48.931728 12.002101,47.864025 11.997950,46.395767 
	C12.280352,43.916645 12.565619,41.838081 12.894190,39.370937 
	C12.937494,38.982357 13.397516,38.952133 13.627495,38.936543 
z"/>
<path fill="#DAE1F4" opacity="1.000000" stroke="none" 
	d="
M59.256836,33.005951 
	C58.676296,31.579691 58.344597,30.155504 58.018467,28.343288 
	C58.024036,27.955261 58.393051,28.035751 58.578022,28.069399 
	C59.129002,28.567310 59.495010,29.031572 60.004585,29.754807 
	C60.093124,30.748795 60.038109,31.483810 59.991859,32.587433 
	C60.000629,32.956036 59.505669,33.008022 59.256836,33.005951 
z"/>
<path fill="#D7DFF5" opacity="1.000000" stroke="none" 
	d="
M16.065907,47.807674 
	C15.816579,45.453850 15.567250,43.100029 15.823690,40.393761 
	C26.157310,41.443268 35.963326,42.181908 45.642792,39.076336 
	C45.642792,39.076336 45.994190,39.070885 46.169662,39.060638 
	C46.215847,40.420067 46.086555,41.789742 45.546158,43.664127 
	C42.811089,47.401741 39.660656,48.089199 35.763836,48.149944 
	C30.503010,48.231949 25.257040,49.267105 19.675280,49.867790 
	C18.919409,49.855064 18.492956,49.867828 18.066502,49.880589 
	C18.066502,49.880589 18.021847,49.954960 18.070267,49.616222 
	C17.434427,48.787548 16.750166,48.297611 16.065907,47.807674 
z"/>
<path fill="#E5EBF9" opacity="1.000000" stroke="none" 
	d="
M45.732719,38.673351 
	C35.963326,42.181908 26.157310,41.443268 15.950239,40.006699 
	C15.461277,38.902321 15.351534,37.832565 15.337490,36.367882 
	C25.294071,35.660095 35.154957,35.347233 45.423584,35.010532 
	C45.828434,36.081253 45.825539,37.175808 45.732719,38.673351 
z"/>
<path fill="#C0CBED" opacity="1.000000" stroke="none" 
	d="
M20.004696,49.893272 
	C25.257040,49.267105 30.503010,48.231949 35.763836,48.149944 
	C39.660656,48.089199 42.811089,47.401741 45.460220,44.070686 
	C45.785385,43.972534 46.029243,44.408516 46.005821,45.016228 
	C45.290386,47.349125 44.598373,49.074310 43.444885,50.833096 
	C41.171761,50.865276 39.356499,50.937500 37.549118,50.848896 
	C31.699419,50.562141 25.852615,50.216331 20.004696,49.893272 
z"/>
<path fill="#DAE1F4" opacity="1.000000" stroke="none" 
	d="
M49.070850,43.882446 
	C48.953045,42.852085 48.835239,41.821724 49.272324,40.401367 
	C52.557178,40.011333 55.287148,40.011288 58.017113,40.011246 
	C57.998684,42.042034 57.980251,44.072823 57.530571,46.549011 
	C54.809685,46.307819 52.520050,45.621231 50.045452,44.751030 
	C49.597275,44.339096 49.334064,44.110771 49.070850,43.882446 
z"/>
<path fill="#263978" opacity="1.000000" stroke="none" 
	d="
M19.675280,49.867790 
	C25.852615,50.216331 31.699419,50.562141 37.549118,50.848896 
	C39.356499,50.937500 41.171761,50.865276 43.784714,50.883884 
	C44.814888,50.891273 45.043762,50.881470 45.272640,50.871666 
	C44.492554,51.582878 43.724781,52.894829 42.930454,52.911106 
	C36.025932,53.052620 29.112181,53.085732 22.212477,52.837276 
	C20.799755,52.786407 19.434355,51.421406 18.056820,50.271370 
	C18.492956,49.867828 18.919409,49.855064 19.675280,49.867790 
z"/>
<path fill="#E9EDFA" opacity="1.000000" stroke="none" 
	d="
M58.007957,40.007629 
	C55.287148,40.011288 52.557178,40.011333 49.370605,40.021812 
	C48.747807,38.724670 48.581623,37.417088 48.384811,35.780136 
	C48.354183,35.450768 48.743923,35.254627 48.929287,35.139538 
	C52.042961,35.014229 54.971268,35.004009 58.265396,34.989380 
	C58.660236,36.081028 58.689262,37.177082 58.489861,38.805710 
	C58.115822,39.542789 58.032520,39.770138 58.011524,40.020329 
	C58.011524,40.020329 57.998806,40.004013 58.007957,40.007629 
z"/>
<path fill="#C0CBED" opacity="1.000000" stroke="none" 
	d="
M50.230415,44.934643 
	C52.520050,45.621231 54.809685,46.307819 57.480354,46.981197 
	C57.551403,48.250385 57.241413,49.532780 56.931427,50.815174 
	C55.691448,50.286709 54.362968,49.898727 53.236988,49.189323 
	C52.162788,48.512535 51.299629,47.500782 50.249847,46.062698 
	C50.180809,45.304287 50.205612,45.119465 50.230415,44.934643 
z"/>
<path fill="#7C89B8" opacity="1.000000" stroke="none" 
	d="
M45.549534,50.719238 
	C45.043762,50.881470 44.814888,50.891273 44.246185,50.850288 
	C44.598373,49.074310 45.290386,47.349125 46.070534,45.257473 
	C46.047920,46.782944 45.937172,48.674873 45.549534,50.719238 
z"/>
<path fill="#7C89B8" opacity="1.000000" stroke="none" 
	d="
M50.045452,44.751030 
	C50.205612,45.119465 50.180809,45.304287 50.093147,45.762245 
	C49.630013,45.459042 49.229740,44.882698 48.950157,44.094402 
	C49.334064,44.110771 49.597275,44.339096 50.045452,44.751030 
z"/>
<path fill="#263978" opacity="1.000000" stroke="none" 
	d="
M16.075943,48.155457 
	C16.750166,48.297611 17.434427,48.787548 18.111349,49.602306 
	C17.431334,49.452499 16.758657,48.977867 16.075943,48.155457 
z"/>
<path fill="#DAE1F4" opacity="1.000000" stroke="none" 
	d="
M58.196281,39.920177 
	C58.032520,39.770138 58.115822,39.542789 58.388710,39.207199 
	C58.708115,39.367043 58.663132,39.615013 58.196281,39.920177 
z"/>
</svg>